<?xml version="1.0" encoding="UTF-8" standalone="no"?>
<!-- Created with Inkscape (http://www.inkscape.org/) -->

<svg
   xmlns:dc="http://purl.org/dc/elements/1.1/"
   xmlns:cc="http://creativecommons.org/ns#"
   xmlns:rdf="http://www.w3.org/1999/02/22-rdf-syntax-ns#"
   xmlns:svg="http://www.w3.org/2000/svg"
   xmlns="http://www.w3.org/2000/svg"
   xmlns:xlink="http://www.w3.org/1999/xlink"
   xmlns:sodipodi="http://sodipodi.sourceforge.net/DTD/sodipodi-0.dtd"
   xmlns:inkscape="http://www.inkscape.org/namespaces/inkscape"
   width="16px"
   height="16px"
   viewBox="0 0 16 16"
   version="1.1"
   id="SVGRoot"
   inkscape:version="0.92.4 (5da689c313, 2019-01-14)"
   sodipodi:docname="favicon-16.svg"
   inkscape:export-filename="C:\Users\maxmi\source\repos\website\favicon-16.png"
   inkscape:export-xdpi="96"
   inkscape:export-ydpi="96">
  <defs
     id="defs74">
    <linearGradient
       inkscape:collect="always"
       id="linearGradient6087">
      <stop
         style="stop-color:#000000;stop-opacity:1;"
         offset="0"
         id="stop6083" />
      <stop
         style="stop-color:#000000;stop-opacity:1"
         offset="1"
         id="stop6085" />
    </linearGradient>
    <linearGradient
       inkscape:collect="always"
       xlink:href="#linearGradient6087"
       id="linearGradient6089"
       x1="4.0482523"
       y1="8.7286053"
       x2="10.622502"
       y2="10.052046"
       gradientUnits="userSpaceOnUse" />
  </defs>
  <sodipodi:namedview
     id="base"
     pagecolor="#ffffff"
     bordercolor="#666666"
     borderopacity="1.0"
     inkscape:pageopacity="0.0"
     inkscape:pageshadow="2"
     inkscape:zoom="36.243094"
     inkscape:cx="7.5071687"
     inkscape:cy="9.5753161"
     inkscape:document-units="px"
     inkscape:current-layer="layer1"
     showgrid="false"
     inkscape:window-width="1920"
     inkscape:window-height="1013"
     inkscape:window-x="-9"
     inkscape:window-y="-9"
     inkscape:window-maximized="1"
     inkscape:grid-bbox="true" />
  <metadata
     id="metadata77">
    <rdf:RDF>
      <cc:Work
         rdf:about="">
        <dc:format>image/svg+xml</dc:format>
        <dc:type
           rdf:resource="http://purl.org/dc/dcmitype/StillImage" />
        <dc:title />
      </cc:Work>
    </rdf:RDF>
  </metadata>
  <g
     inkscape:label="Layer 1"
     inkscape:groupmode="layer"
     id="layer1">
    <path
       id="path33"
       sodipodi:type="arc"
       sodipodi:cx="7.9991455"
       sodipodi:cy="8.0008545"
       sodipodi:rx="7.9991455"
       sodipodi:ry="7.9991455"
       sodipodi:start="0"
       sodipodi:end="6.2825278"
       d="M 15.998291,8.0008545 A 7.9991455,7.9991455 0 0 1 8.0004604,16 7.9991455,7.9991455 0 0 1 4.3226951e-7,8.0034842 7.9991455,7.9991455 0 0 1 7.9952009,0.00170996 7.9991455,7.9991455 0 0 1 15.998289,7.995595"
       sodipodi:open="true" />
    <path
       style="stroke-width:0.03125"
       d="M 7.5136719 0.03515625 C 6.3787041 0.11499732 5.4734865 0.35395094 4.484375 0.83789062 C 2.8223696 1.6510549 1.4749476 3.0434977 0.71875 4.7285156 C -0.64203303 7.7607175 0.00861276 11.289863 2.3632812 13.644531 C 3.6314617 14.912712 5.25433 15.70311 7.0585938 15.931641 C 7.5037749 15.988031 8.7432484 15.971224 9.1757812 15.902344 C 10.591336 15.676931 11.840226 15.129196 12.988281 14.232422 C 13.315349 13.976942 14.08328 13.190721 14.341797 12.845703 C 15.262312 11.617177 15.780178 10.307376 15.943359 8.796875 C 15.991529 8.350985 15.965274 7.2344728 15.896484 6.8046875 C 15.501175 4.3350594 14.04039 2.2405147 11.857422 1.0117188 C 10.583257 0.29448957 8.9708235 -0.06734932 7.5136719 0.03515625 z "
       id="path35" />
    <path
       style="fill:#ffff00;fill-opacity:1;stroke-width:0.03010245"
       d="m 4.1308425,15.929391 c -2.0737679,-0.284244 -3.52346639,-1.58429 -3.98906,-3.577268 -0.09428981,-0.40361 -0.16488607,-1.185438 -0.14673212,-1.625 C 0.0314564,9.8456395 0.21486841,8.9953761 0.57814685,8.0239976 1.0204726,6.8412526 1.5958766,5.8248642 2.4084774,4.7909179 3.1583222,3.8368217 3.905172,3.1041783 4.9104905,2.3364976 6.5875636,1.0558521 8.264411,0.32266144 10.100549,0.06717821 c 0.423622,-0.05894352 1.430584,-0.05011803 1.835269,0.01608516 1.563414,0.25576289 2.718325,1.02951033 3.406301,2.28209643 0.699737,1.2739978 0.821061,2.94293 0.3435,4.725226 -0.15714,0.5864743 -0.576736,1.647489 -0.864128,2.185119 -0.935497,1.7500202 -2.214003,3.2321762 -3.840782,4.4525722 -0.54633,0.409854 -0.855395,0.612308 -1.442346,0.944818 -1.1964033,0.677767 -2.4649008,1.110586 -3.6875279,1.258206 -0.4597857,0.05551 -1.3079006,0.05457 -1.7199936,-0.0019 z"
       id="path37"
       inkscape:connector-curvature="0" />
    <path
       sodipodi:type="star"
       style="fill:none"
       id="path47"
       sodipodi:sides="6"
       sodipodi:cx="1.053546"
       sodipodi:cy="13.561236"
       sodipodi:r1="3.233032"
       sodipodi:r2="2.6751368"
       sodipodi:arg1="-1.0471976"
       sodipodi:arg2="-0.52359878"
       inkscape:flatsided="true"
       inkscape:rounded="0"
       inkscape:randomized="0"
       d="m 2.6700618,10.761348 1.6165161,2.799888 -1.6165158,2.799888 -3.23303201,0 -1.61651609,-2.799887 1.61651582,-2.799888 z" />
    <text
       xml:space="preserve"
       style="font-style:normal;font-variant:normal;font-weight:normal;font-stretch:normal;font-size:28.52490807px;font-family:'Microsoft Himalaya';-inkscape-font-specification:'Microsoft Himalaya';letter-spacing:0px;word-spacing:0px;writing-mode:lr-tb;fill:url(#linearGradient6089);fill-opacity:1;stroke:none;stroke-width:1.33710504"
       x="3.1847053"
       y="15.07289"
       id="text6029"
       transform="scale(1.0901271,0.91732421)"><tspan
         sodipodi:role="line"
         id="tspan6027"
         x="3.1847053"
         y="15.07289"
         style="stroke-width:1.33710504;fill-opacity:1;fill:url(#linearGradient6089)">?</tspan></text>
  </g>
</svg>
